REM DIRINDEX 1\2\4,1\2\5,1\3\6,1\3\7,1\3\8
REM DIRNAME folder01,folder02,folder03,folder04,folder05,folder06,folder07,folder08
TITLE ""
FILE "LEVEL6-015-midashigo.mp3" MP3
  TRACK 01 AUDIO
    TITLE "0:"
    INDEX 01 00:00:00
  TRACK 02 AUDIO
    TITLE "6:cjc092_4750"
    INDEX 01 00:00:03
  TRACK 03 AUDIO
    TITLE "0:"
    INDEX 01 00:02:30
  TRACK 04 AUDIO
    TITLE "7:cjc092_4751"
    INDEX 01 00:03:04
  TRACK 05 AUDIO
    TITLE "8:cjc092_4752"
    INDEX 01 00:04:58
  TRACK 06 AUDIO
    TITLE "0:"
    INDEX 01 00:06:12
  TRACK 07 AUDIO
    TITLE "7:cjc092_4753"
    INDEX 01 00:06:45
  TRACK 08 AUDIO
    TITLE "8:cjc092_4754"
    INDEX 01 00:08:01
  TRACK 09 AUDIO
    TITLE "0:"
    INDEX 01 00:09:42
  TRACK 10 AUDIO
    TITLE "7:cjc092_4755"
    INDEX 01 00:10:04
  TRACK 11 AUDIO
    TITLE "8:cjc092_4756"
    INDEX 01 00:11:31
  TRACK 12 AUDIO
    TITLE "0:"
    INDEX 01 00:12:42
  TRACK 13 AUDIO
    TITLE "7:cjc092_4757"
    INDEX 01 00:13:02
  TRACK 14 AUDIO
    TITLE "8:cjc092_4758"
    INDEX 01 00:14:58
  TRACK 15 AUDIO
    TITLE "0:"
    INDEX 01 00:18:05
  TRACK 16 AUDIO
    TITLE "7:cjc092_4759"
    INDEX 01 00:18:41
  TRACK 17 AUDIO
    TITLE "8:cjc092_4760"
    INDEX 01 00:20:02
  TRACK 18 AUDIO
    TITLE "0:"
    INDEX 01 00:21:47
  TRACK 19 AUDIO
    TITLE "7:cjc092_4761"
    INDEX 01 00:22:09
  TRACK 20 AUDIO
    TITLE "8:cjc092_4762"
    INDEX 01 00:23:51
  TRACK 21 AUDIO
    TITLE "0:"
    INDEX 01 00:25:56
  TRACK 22 AUDIO
    TITLE "7:cjc092_4763"
    INDEX 01 00:26:18
  TRACK 23 AUDIO
    TITLE "8:cjc092_4764"
    INDEX 01 00:27:63
  TRACK 24 AUDIO
    TITLE "0:"
    INDEX 01 00:29:58
  TRACK 25 AUDIO
    TITLE "7:cjc092_4765"
    INDEX 01 00:30:08
  TRACK 26 AUDIO
    TITLE "8:cjc092_4766"
    INDEX 01 00:31:43
  TRACK 27 AUDIO
    TITLE "0:"
    INDEX 01 00:35:68
  TRACK 28 AUDIO
    TITLE "7:cjc092_4767"
    INDEX 01 00:36:29
  TRACK 29 AUDIO
    TITLE "8:cjc092_4768"
    INDEX 01 00:37:73
  TRACK 30 AUDIO
    TITLE "0:"
    INDEX 01 00:40:24
  TRACK 31 AUDIO
    TITLE "7:cjc092_4769"
    INDEX 01 00:40:62
  TRACK 32 AUDIO
    TITLE "8:cjc092_4770"
    INDEX 01 00:42:14
  TRACK 33 AUDIO
    TITLE "0:"
    INDEX 01 00:44:60
  TRACK 34 AUDIO
    TITLE "7:cjc092_4771"
    INDEX 01 00:45:20
  TRACK 35 AUDIO
    TITLE "8:cjc092_4772"
    INDEX 01 00:46:43
  TRACK 36 AUDIO
    TITLE "0:"
    INDEX 01 00:48:57
  TRACK 37 AUDIO
    TITLE "7:cjc092_4773"
    INDEX 01 00:49:20
  TRACK 38 AUDIO
    TITLE "8:cjc092_4774"
    INDEX 01 00:50:52
  TRACK 39 AUDIO
    TITLE "0:"
    INDEX 01 00:51:69
  TRACK 40 AUDIO
    TITLE "7:cjc092_4775"
    INDEX 01 00:52:30
  TRACK 41 AUDIO
    TITLE "8:cjc092_4776"
    INDEX 01 00:53:47
  TRACK 42 AUDIO
    TITLE "0:"
    INDEX 01 00:56:55
  TRACK 43 AUDIO
    TITLE "7:cjc092_4777"
    INDEX 01 00:57:17
  TRACK 44 AUDIO
    TITLE "8:cjc092_4778"
    INDEX 01 00:58:38
  TRACK 45 AUDIO
    TITLE "0:"
    INDEX 01 01:01:33
  TRACK 46 AUDIO
    TITLE "7:cjc092_4779"
    INDEX 01 01:01:66
  TRACK 47 AUDIO
    TITLE "8:cjc092_4780"
    INDEX 01 01:03:20
  TRACK 48 AUDIO
    TITLE "0:"
    INDEX 01 01:06:55
  TRACK 49 AUDIO
    TITLE "7:cjc092_4781"
    INDEX 01 01:07:14
  TRACK 50 AUDIO
    TITLE "8:cjc092_4782"
    INDEX 01 01:08:40
  TRACK 51 AUDIO
    TITLE "0:"
    INDEX 01 01:10:43
  TRACK 52 AUDIO
    TITLE "7:cjc092_4783"
    INDEX 01 01:11:02
  TRACK 53 AUDIO
    TITLE "8:cjc092_4784"
    INDEX 01 01:12:32
  TRACK 54 AUDIO
    TITLE "0:"
    INDEX 01 01:16:07
  TRACK 55 AUDIO
    TITLE "7:cjc092_4785"
    INDEX 01 01:16:44
  TRACK 56 AUDIO
    TITLE "8:cjc092_4786"
    INDEX 01 01:18:06
  TRACK 57 AUDIO
    TITLE "0:"
    INDEX 01 01:19:21
  TRACK 58 AUDIO
    TITLE "7:cjc092_4787"
    INDEX 01 01:19:56
  TRACK 59 AUDIO
    TITLE "8:cjc092_4788"
    INDEX 01 01:21:23
  TRACK 60 AUDIO
    TITLE "0:"
    INDEX 01 01:25:04
  TRACK 61 AUDIO
    TITLE "7:cjc092_4789"
    INDEX 01 01:25:41
  TRACK 62 AUDIO
    TITLE "8:cjc092_4790"
    INDEX 01 01:26:64
  TRACK 63 AUDIO
    TITLE "0:"
    INDEX 01 01:29:07
  TRACK 64 AUDIO
    TITLE "7:cjc092_4791"
    INDEX 01 01:29:45
  TRACK 65 AUDIO
    TITLE "8:cjc092_4792"
    INDEX 01 01:30:62
  TRACK 66 AUDIO
    TITLE "0:"
    INDEX 01 01:34:18
